<svg width="1013" height="1013" viewBox="0 0 1013 1013" fill="none" xmlns="http://www.w3.org/2000/svg">
<g filter="url(#filter0_d_0_1)">
<path d="M372.305 1L422.305 285L494.305 327L553.305 277L531.805 271.5C532.305 268.167 531.905 258.6 526.305 247C519.305 232.5 527.305 215.5 526.305 197C525.505 182.2 516.305 160.833 511.805 152C518.605 130.4 511.972 105 507.805 95C516.205 79.4 508.305 33.8333 503.305 13L499.805 50C500.805 55.3333 500.405 68.7 490.805 79.5C481.205 90.3 489.138 111.333 494.305 120.5C473.305 171.5 506.305 186.5 494.305 197C482.305 207.5 480.305 219 481.805 233C483.005 244.2 490.638 261.667 494.305 269L461.305 271.5L372.305 1Z" fill="white" stroke="#474747" stroke-width="3"/>
<path d="M634.16 314.814L654.774 334.497L600.332 368L590.719 290.058L600.332 298.435C601.561 295.27 606.68 287.095 617.331 279.715C630.644 270.49 632.173 251.65 642.269 235.954C650.345 223.397 668.995 209.251 677.311 203.748C682.176 181.476 700.608 162.53 709.216 155.84C709.698 138.028 739.289 102.058 754.024 86.2997L738.61 120.416C735.082 124.589 728.762 136.486 731.716 150.691C734.671 164.897 717.287 179.378 708.226 184.843C701.035 239.877 664.882 236.666 670.071 251.797C675.26 266.929 671.262 277.984 662.976 289.495C656.347 298.703 641.004 310.211 634.16 314.814Z" fill="white" stroke="#474747" stroke-width="3"/>
<path d="M1005.4 397.145L719.522 434.954L647 484L719.522 561L728.327 544.931C731.636 545.573 741.211 545.583 753.04 540.484C767.826 534.111 784.469 542.83 802.994 542.622C817.815 542.456 839.556 534.178 848.573 530.06C869.863 537.778 895.523 532.237 905.692 528.501C920.919 537.561 966.782 531.617 987.81 527.512L950.993 522.433C945.622 523.204 932.285 522.233 921.905 512.18C911.525 502.127 890.172 509.153 880.793 513.923C830.738 490.761 814.34 523.09 804.363 510.652C794.386 498.214 782.982 495.724 768.93 496.624C757.689 497.344 739.912 504.223 732.429 507.573L733.797 475.602L1005.4 397.145Z" fill="white" stroke="#474747" stroke-width="3"/>
<path d="M995.522 641.967L724.16 544.406L718.195 587.072L995.522 641.967Z" fill="white" stroke="#474747" stroke-width="3"/>
<path d="M888.258 834.604L673.799 641.826L648.805 677L888.258 834.604Z" fill="white" stroke="#474747" stroke-width="3"/>
<path d="M145.007 127.819L323.595 354.23L351.24 321.188L145.007 127.819Z" fill="white" stroke="#474747" stroke-width="3"/>
<path d="M155.983 884.784L370.37 691.926L335.609 666.476L155.983 884.784Z" fill="white" stroke="#474747" stroke-width="3"/>
<path d="M860.225 138L647.06 332.207L620 399.732L722.827 431L717.058 417.488C720.141 416.127 728.009 410.67 734.812 399.732C743.316 386.059 761.958 383.721 777.052 372.977C789.127 364.382 802.254 345.176 807.308 336.648C829.194 330.834 847.103 311.639 853.321 302.768C870.995 301.517 905.262 270.46 920.186 255.089L887.056 271.931C883.085 275.629 871.579 282.444 857.319 280.113C843.058 277.782 829.534 295.739 824.555 305.009C770.234 314.558 775.22 350.463 759.929 345.944C744.637 341.425 733.852 345.889 722.827 354.647C714.008 361.654 703.337 377.449 699.104 384.471L681.981 357.437L860.225 138Z" fill="white" stroke="#474747" stroke-width="3"/>
<path d="M20.6375 681.127L296.568 597.35L341 536.451L270.002 478L270.002 490.267C266.633 490.171 257.184 491.719 246.341 498.672C232.788 507.365 214.949 501.466 196.704 504.683C182.107 507.256 162.001 518.958 153.773 524.487C131.512 520.333 107.094 529.972 97.6674 535.31C81.1707 528.846 36.8841 542.167 16.8029 549.635L53.9554 548.662C59.1298 547.028 72.4476 545.818 84.3233 554.05C96.199 562.282 116.126 551.878 124.605 545.647C177.76 560.364 188.684 525.8 200.551 536.451C212.417 547.102 224.074 547.705 237.792 544.533C248.767 541.995 265.189 532.317 272.028 527.796L275.875 559.564L20.6375 681.127Z" fill="white" stroke="#474747" stroke-width="3"/>
<path d="M661.15 990.944L605.543 707.989L547.083 638L496.332 723.652C495.898 726.994 496.487 736.551 502.315 748.038C509.601 762.397 501.938 779.552 503.304 798.028C504.397 812.81 514.017 833.99 518.691 842.733C512.32 864.463 519.454 889.727 523.818 899.643C515.728 915.406 524.527 960.807 529.938 981.538L532.706 944.476C531.601 939.163 531.736 925.791 541.121 914.803C550.505 903.816 542.158 882.943 536.811 873.881C556.798 822.475 523.508 808.131 535.298 797.396C547.088 786.66 548.86 775.123 547.083 761.155C545.662 749.981 537.685 732.669 533.874 725.41L565.868 724.777L661.15 990.944Z" fill="white"/>
<path d="M496.332 723.652C495.898 726.994 496.487 736.551 502.315 748.038C509.601 762.397 501.938 779.552 503.304 798.028C504.397 812.81 514.017 833.99 518.691 842.733C512.32 864.463 519.454 889.727 523.818 899.643C515.728 915.406 524.527 960.807 529.938 981.538L532.706 944.476C531.601 939.163 531.736 925.791 541.121 914.803C550.505 903.816 542.158 882.943 536.811 873.881C556.798 822.475 523.508 808.131 535.298 797.396C547.088 786.66 548.86 775.123 547.083 761.155C545.662 749.981 537.685 732.669 533.874 725.41L565.868 724.777L661.15 990.944L605.543 707.989L547.083 638L496.332 723.652ZM496.332 723.652L483.567 723.652" stroke="#474747" stroke-width="3"/>
<path d="M716.9 659.286C707.984 652.269 697.142 636.447 692.836 629.414L710.647 596.317C713.756 597.679 721.705 603.143 728.623 614.1C737.27 627.796 756.027 630.129 771.277 640.887C783.478 649.493 796.813 668.731 801.955 677.274C823.999 683.088 842.14 702.313 848.455 711.199C866.23 712.442 900.902 743.544 916.015 758.94L882.589 742.081C878.571 738.377 866.956 731.555 852.637 733.899C838.318 736.243 824.593 718.256 819.521 708.97C764.845 699.432 769.599 663.449 754.259 667.986C738.92 672.523 728.046 668.056 716.9 659.286Z" fill="white"/>
<path d="M710.647 596.317C713.756 597.679 721.705 603.143 728.623 614.1C737.27 627.796 756.027 630.129 771.277 640.887C783.478 649.493 796.813 668.731 801.955 677.274C823.999 683.088 842.14 702.313 848.455 711.199C866.23 712.442 900.902 743.544 916.015 758.94L882.589 742.081C878.571 738.377 866.956 731.555 852.637 733.899C838.318 736.243 824.593 718.256 819.521 708.97C764.845 699.432 769.599 663.449 754.259 667.986C738.92 672.523 728.046 668.056 716.9 659.286C707.984 652.269 697.142 636.447 692.836 629.414L710.647 596.317ZM710.647 596.317L719.427 587.071" stroke="#474747" stroke-width="3"/>
<path d="M632.288 738.137C625.401 729.12 618.844 711.096 616.426 703.211L641.921 675.596C644.593 677.69 650.93 684.962 654.899 697.297C659.861 712.715 677.446 719.648 689.535 733.866C699.206 745.241 707.328 767.195 710.179 776.75C730.079 787.872 742.858 811.01 746.76 821.19C763.665 826.823 789.494 865.582 800.295 884.258L772.124 859.603C769.155 855.015 759.606 845.514 745.154 844.216C730.703 842.919 721.893 822.08 719.294 811.822C668.719 788.962 682.288 755.299 666.302 755.871C650.316 756.443 640.897 749.408 632.288 738.137Z" fill="white"/>
<path d="M641.921 675.596C644.593 677.69 650.93 684.962 654.899 697.297C659.861 712.715 677.446 719.648 689.535 733.866C699.206 745.241 707.328 767.195 710.179 776.75C730.079 787.872 742.858 811.01 746.76 821.19C763.665 826.823 789.494 865.582 800.295 884.258L772.124 859.603C769.155 855.015 759.606 845.514 745.154 844.216C730.703 842.919 721.893 822.08 719.294 811.822C668.719 788.962 682.288 755.299 666.302 755.871C650.316 756.443 640.897 749.408 632.288 738.137C625.401 729.12 618.844 711.096 616.426 703.211L641.921 675.596ZM641.921 675.596L652.728 668.828" stroke="#474747" stroke-width="3"/>
<path d="M270.081 626.572C280.183 621.407 299.089 618.174 307.279 617.204L329.896 647.222C327.358 649.477 319.071 654.412 306.225 656.115C290.168 658.243 280.206 674.306 264.057 683.661C251.138 691.145 228.087 695.215 218.176 696.314C203.678 713.907 178.629 722.347 167.917 724.368C159.354 739.995 116.604 758.485 96.2998 765.777L125.59 742.462C130.635 740.361 141.689 732.662 145.547 718.675C149.405 704.688 171.483 699.742 182.039 699.017C213.566 653.338 244.264 672.702 246.556 656.871C248.849 641.04 257.454 633.03 270.081 626.572Z" fill="white"/>
<path d="M329.896 647.222C327.358 649.477 319.071 654.412 306.225 656.115C290.168 658.243 280.206 674.306 264.057 683.661C251.138 691.145 228.087 695.215 218.176 696.314C203.678 713.907 178.629 722.347 167.917 724.368C159.354 739.995 116.604 758.485 96.2998 765.777L125.59 742.462C130.635 740.361 141.689 732.662 145.547 718.675C149.405 704.688 171.483 699.742 182.039 699.017C213.566 653.338 244.264 672.702 246.556 656.871C248.849 641.04 257.454 633.03 270.081 626.572C280.183 621.407 299.089 618.174 307.279 617.204L329.896 647.222ZM329.896 647.222L334.624 659.064" stroke="#474747" stroke-width="3"/>
<path d="M391.706 254.206C396.665 264.411 399.51 283.379 400.313 291.587L369.839 313.586C367.637 311.003 362.871 302.617 361.432 289.739C359.632 273.642 343.776 263.354 334.752 247.017C327.534 233.948 323.936 210.818 323.04 200.887C305.747 186.033 297.82 160.816 296.018 150.065C280.569 141.185 262.956 98.0664 256.081 77.6171L278.792 107.378C280.79 112.464 288.262 123.673 302.167 127.816C316.072 131.959 320.566 154.133 321.075 164.702C366.1 197.156 346.114 227.452 361.895 230.067C377.676 232.683 385.508 241.449 391.706 254.206Z" fill="white"/>
<path d="M369.839 313.586C367.637 311.003 362.871 302.617 361.432 289.739C359.632 273.642 343.776 263.354 334.752 247.017C327.534 233.948 323.936 210.818 323.04 200.887C305.747 186.033 297.82 160.816 296.018 150.065C280.569 141.185 262.956 98.0664 256.081 77.6171L278.792 107.378C280.79 112.464 288.262 123.673 302.167 127.816C316.072 131.959 320.566 154.133 321.075 164.702C366.1 197.156 346.114 227.452 361.895 230.067C377.676 232.683 385.508 241.449 391.706 254.206C396.665 264.411 399.51 283.379 400.313 291.587L369.839 313.586ZM369.839 313.586L357.903 318.071" stroke="#474747" stroke-width="3"/>
<path d="M416.738 1002.24L485.04 722.078L466 651L379.341 690.452C377.544 693.304 374.067 702.225 374.536 715.098C375.121 731.188 360.966 743.543 354.449 760.886C349.236 774.76 349.078 798.023 349.65 807.92C334.746 824.969 330.617 850.894 330.415 861.725C316.456 872.637 305.385 917.538 301.594 938.625L319.663 906.148C320.89 900.863 326.626 888.783 339.756 882.749C352.886 876.715 354.071 854.267 353.022 843.797C392.741 805.529 368.546 778.536 383.754 773.741C398.961 768.946 405.412 759.218 409.663 745.795C413.063 735.057 413.09 715.995 412.678 707.806L441.982 720.661L416.738 1002.24Z" fill="white"/>
<path d="M379.341 690.452C377.544 693.304 374.067 702.225 374.536 715.098C375.121 731.188 360.966 743.543 354.449 760.886C349.236 774.76 349.078 798.023 349.65 807.92C334.746 824.969 330.617 850.894 330.415 861.725C316.456 872.637 305.385 917.538 301.594 938.625L319.663 906.148C320.89 900.863 326.626 888.783 339.756 882.749C352.886 876.715 354.071 854.267 353.022 843.797C392.741 805.529 368.546 778.536 383.754 773.741C398.961 768.946 405.412 759.218 409.663 745.795C413.063 735.057 413.09 715.995 412.678 707.806L441.982 720.661L416.738 1002.24L485.04 722.078L466 651L379.341 690.452ZM379.341 690.452L366.89 687.72" stroke="#474747" stroke-width="3"/>
<path d="M8.30511 366.702L278.22 468.201L331 432L322.328 367.073C319.713 364.946 311.275 360.421 298.439 359.338C282.395 357.984 271.833 342.446 255.399 333.891C242.252 327.048 219.177 324.093 209.283 323.471C194.151 306.624 168.911 299.407 158.182 297.904C149.028 282.734 105.784 266.344 85.3059 260.045L115.374 281.888C120.474 283.742 131.777 290.889 136.187 304.649C140.598 318.409 162.741 322.285 173.262 322.503C206.475 366.536 236.182 345.763 239.113 361.437C242.044 377.11 250.925 384.685 263.74 390.519C273.992 395.186 292.912 397.505 301.091 398.081L284.805 425.626L8.30511 366.702Z" fill="white"/>
<path d="M322.328 367.073C319.713 364.946 311.275 360.421 298.439 359.338C282.395 357.984 271.833 342.446 255.399 333.891C242.252 327.048 219.177 324.093 209.283 323.471C194.151 306.624 168.911 299.407 158.182 297.904C149.028 282.734 105.784 266.344 85.3059 260.045L115.374 281.888C120.474 283.742 131.777 290.889 136.187 304.649C140.598 318.409 162.741 322.285 173.262 322.503C206.475 366.536 236.182 345.763 239.113 361.437C242.044 377.11 250.925 384.685 263.74 390.519C273.992 395.186 292.912 397.505 301.091 398.081L284.805 425.626L8.30511 366.702L278.22 468.201L331 432L322.328 367.073ZM322.328 367.073L326.538 355.04" stroke="#474747" stroke-width="3"/>
<path d="M658.502 27.9385L554.434 275.606L589.179 292.068L658.502 27.9385Z" fill="white" stroke="#474747" stroke-width="3"/>
</g>
<g filter="url(#filter1_d_0_1)">
<circle cx="503" cy="511" r="390" fill="#DEB73A"/>
<circle cx="503" cy="511" r="384" stroke="#474747" stroke-width="12"/>
</g>
<path d="M263 445.847C296.333 416.403 372.667 372.18 411.333 430.847" stroke="#474747" stroke-width="18"/>
<path d="M366.333 444.667C343.667 463.333 324.667 436.889 318 421.333L378 413C383.556 415.778 389 426 366.333 444.667Z" fill="#474747" stroke="#474747" stroke-width="18"/>
<path d="M287.333 470.333C317.333 505.889 385 553 415.667 457" stroke="#474747" stroke-width="18"/>
<path d="M468 413.5C492.167 430.167 483.812 537.179 408.833 601" stroke="#474747" stroke-width="12"/>
<path d="M537.967 406.053C513.8 422.72 510.5 545.167 597.134 593.553" stroke="#474747" stroke-width="12"/>
<path d="M406.333 617.667C431.333 650.167 559.667 650.167 594.667 614.333M468.833 595.167C490.5 617.667 513.833 617.667 535.5 595.167" stroke="#474747" stroke-width="12"/>
<path d="M399.667 333.965C425.291 337.245 465.5 377.298 461.056 383.903C455.5 366.465 407.167 359.798 395.5 355.631C376.846 348.969 380.632 334.863 293 363.131C340.5 327.804 371.454 330.353 399.667 333.965Z" fill="#474747" stroke="#474747"/>
<path d="M738.222 445.847C704.888 416.403 628.555 372.18 589.888 430.847" stroke="#474747" stroke-width="18"/>
<path d="M636.55 444.667C659.217 463.333 678.217 436.889 684.884 421.333L624.884 413C619.328 415.778 613.884 426 636.55 444.667Z" fill="#474747" stroke="#474747" stroke-width="18"/>
<path d="M715.888 470.333C685.888 505.889 618.222 553 587.555 457" stroke="#474747" stroke-width="18"/>
<path d="M601.555 333.965C575.931 337.245 535.722 377.298 540.166 383.903C545.722 366.465 594.055 359.798 605.722 355.631C624.376 348.969 620.589 334.863 708.222 363.131C660.722 327.804 629.768 330.353 601.555 333.965Z" fill="#474747" stroke="#474747"/>
<path d="M638 751H389.667C395.222 735.444 413 704.333 439.667 704.333C466.333 704.333 491.889 716.556 501.333 722.667C510.222 716.556 536 704.333 568 704.333C600 704.333 628 735.444 638 751Z" stroke="#474747" stroke-width="12"/>
<defs>
<filter id="filter0_d_0_1" x="4.77716" y="0.531189" width="1008.04" height="1012.06" filterUnits="userSpaceOnUse" color-interpolation-filters="sRGB">
<feFlood flood-opacity="0" result="BackgroundImageFix"/>
<feColorMatrix in="SourceAlpha" type="matrix" values="0 0 0 0 0 0 0 0 0 0 0 0 0 0 0 0 0 0 127 0" result="hardAlpha"/>
<feOffset dx="2" dy="5"/>
<feGaussianBlur stdDeviation="2.5"/>
<feComposite in2="hardAlpha" operator="out"/>
<feColorMatrix type="matrix" values="0 0 0 0 0 0 0 0 0 0 0 0 0 0 0 0 0 0 0.25 0"/>
<feBlend mode="normal" in2="BackgroundImageFix" result="effect1_dropShadow_0_1"/>
<feBlend mode="normal" in="SourceGraphic" in2="effect1_dropShadow_0_1" result="shape"/>
</filter>
<filter id="filter1_d_0_1" x="113" y="121" width="784" height="784" filterUnits="userSpaceOnUse" color-interpolation-filters="sRGB">
<feFlood flood-opacity="0" result="BackgroundImageFix"/>
<feColorMatrix in="SourceAlpha" type="matrix" values="0 0 0 0 0 0 0 0 0 0 0 0 0 0 0 0 0 0 127 0" result="hardAlpha"/>
<feOffset dx="2" dy="2"/>
<feGaussianBlur stdDeviation="1"/>
<feComposite in2="hardAlpha" operator="out"/>
<feColorMatrix type="matrix" values="0 0 0 0 0 0 0 0 0 0 0 0 0 0 0 0 0 0 0.25 0"/>
<feBlend mode="normal" in2="BackgroundImageFix" result="effect1_dropShadow_0_1"/>
<feBlend mode="normal" in="SourceGraphic" in2="effect1_dropShadow_0_1" result="shape"/>
</filter>
</defs>
</svg>
